<?xml version="1.0" encoding="utf-8"?>
<!-- Generator: Adobe Illustrator 19.2.0, SVG Export Plug-In . SVG Version: 6.00 Build 0)  -->
<svg version="1.1" id="Layer_1" xmlns="http://www.w3.org/2000/svg" xmlns:xlink="http://www.w3.org/1999/xlink" x="0px" y="0px"
	 viewBox="0 0 30 30" style="enable-background:new 0 0 30 30;" xml:space="preserve">
<style type="text/css">
	.st0{clip-path:url(#SVGID_2_);}
</style>
<g>
	<defs>
		<rect id="SVGID_1_" width="30" height="30"/>
	</defs>
	<clipPath id="SVGID_2_">
		<use xlink:href="#SVGID_1_"  style="overflow:visible;"/>
	</clipPath>
	<path class="st0" d="M15,9.6c-2.7,0-5,2.2-5,5c0,2.7,2.2,5,5,5c2.7,0,5-2.2,5-5S17.7,9.6,15,9.6"/>
	<path class="st0" d="M15,7.4c0.5,0,0.9-0.4,0.9-0.9V2.4c0-0.5-0.4-0.9-0.9-0.9c-0.5,0-0.9,0.4-0.9,0.9v4.1C14.1,7,14.5,7.4,15,7.4"
		/>
	<path class="st0" d="M15,21.5c-0.5,0-0.9,0.4-0.9,0.9v4.1c0,0.5,0.4,0.9,0.9,0.9c0.5,0,0.9-0.4,0.9-0.9v-4.1
		C15.9,21.9,15.5,21.5,15,21.5"/>
	<path class="st0" d="M5.9,5.2C5.5,4.8,5,4.8,4.6,5.2c-0.4,0.4-0.4,0.9,0,1.3l3.2,3.2C8,9.8,8.2,9.9,8.5,9.9c0.2,0,0.5-0.1,0.6-0.3
		c0.4-0.4,0.4-0.9,0-1.3L5.9,5.2z"/>
	<path class="st0" d="M22.2,19.2c-0.4-0.3-0.9-0.3-1.3,0c-0.4,0.4-0.4,0.9,0,1.3l3.2,3.2c0.2,0.2,0.4,0.3,0.6,0.3
		c0.2,0,0.5-0.1,0.6-0.3c0.4-0.4,0.4-0.9,0-1.3L22.2,19.2z"/>
	<path class="st0" d="M6.9,14.5c0-0.5-0.4-0.9-0.9-0.9H1.8c-0.5,0-0.9,0.4-0.9,0.9c0,0.5,0.4,0.9,0.9,0.9H6
		C6.5,15.4,6.9,15,6.9,14.5"/>
	<path class="st0" d="M28.2,13.6H24c-0.5,0-0.9,0.4-0.9,0.9c0,0.5,0.4,0.9,0.9,0.9h4.1c0.5,0,0.9-0.4,0.9-0.9
		C29.1,14,28.7,13.6,28.2,13.6"/>
	<path class="st0" d="M7.8,19.2l-3.2,3.2c-0.4,0.4-0.4,0.9,0,1.3C4.8,23.9,5,24,5.2,24s0.5-0.1,0.6-0.3l3.2-3.2
		c0.4-0.3,0.4-0.9,0-1.3C8.8,18.9,8.2,18.9,7.8,19.2"/>
	<path class="st0" d="M21.5,9.9c0.2,0,0.5-0.1,0.6-0.3l3.2-3.2c0.4-0.4,0.4-0.9,0-1.3c-0.4-0.4-0.9-0.4-1.3,0l-3.2,3.2
		c-0.4,0.4-0.4,0.9,0,1.3C21.1,9.8,21.3,9.9,21.5,9.9"/>
</g>
</svg>
