<?xml version="1.0" encoding="utf-8"?>
<!-- Generator: Adobe Illustrator 19.2.0, SVG Export Plug-In . SVG Version: 6.00 Build 0)  -->
<svg version="1.1" id="Layer_1" xmlns="http://www.w3.org/2000/svg" xmlns:xlink="http://www.w3.org/1999/xlink" x="0px" y="0px"
	 viewBox="0 0 30 30" style="enable-background:new 0 0 30 30;" xml:space="preserve">
<style type="text/css">
	.st0{clip-path:url(#SVGID_2_);}
</style>
<g>
	<defs>
		<rect id="SVGID_1_" width="30" height="30"/>
	</defs>
	<clipPath id="SVGID_2_">
		<use xlink:href="#SVGID_1_"  style="overflow:visible;"/>
	</clipPath>
	<path class="st0" d="M24,23.3c-4.2,0.3-8.2-2.1-10.7-6.4c-2.5-4.3-2.6-9-0.2-12.5c0.1-0.1,0.1-0.3,0-0.5c-0.1-0.1-0.3-0.2-0.5-0.1
		c-0.4,0.2-0.7,0.3-1.1,0.5C5.8,7.6,3.9,14.8,7.1,20.4c3.2,5.6,10.5,7.6,16.1,4.3c0.4-0.2,0.7-0.4,1-0.7c0.1-0.1,0.2-0.3,0.1-0.5
		C24.3,23.4,24.2,23.3,24,23.3"/>
</g>
</svg>
