<?xml version="1.0" encoding="UTF-8" standalone="no"?>
<svg width="160px" height="36px" viewBox="0 0 160 36" version="1.1" xmlns="http://www.w3.org/2000/svg" xmlns:xlink="http://www.w3.org/1999/xlink">
    <!-- Generator: Sketch 3.6.1 (26313) - http://www.bohemiancoding.com/sketch -->
    <title>Logo</title>
    <desc>Created with Sketch.</desc>
    <defs>
        <path id="path-1" d="M0,0.24267907 L0,22.7312372 L22.4884465,22.7312372 L22.4884465,0.24267907 L5.0428008e-21,0.24267907 L0,0.24267907 Z"></path>
        <path id="path-3" d="M0.338604651,22.6976744 L22.8271628,22.6976744 L22.8271628,0.209302326 L0.338604651,0.209302326 L0.338604651,22.6976744 L0.338604651,22.6976744 Z"></path>
        <path id="path-5" d="M0,35.4782512 L159.957953,35.4782512 L159.957953,0.372018605 L0,0.372018605 L0,35.4782512 Z"></path>
    </defs>
    <g id="Page-1" stroke="none" stroke-width="1" fill="none" fill-rule="evenodd">
        <g id="1" transform="translate(-640.000000, -12.000000)">
            <g id="NavBar">
                <g id="Logo" transform="translate(640.000000, 12.000000)">
                    <g id="Group-3" transform="translate(0.000000, 0.129414)">
                        <mask id="mask-2" fill="white">
                            <use xlink:href="#path-1"></use>
                        </mask>
                        <g id="Clip-2"></g>
                        <path d="M20.9576558,0.24267907 L14.1483535,0.24267907 C13.3066791,0.24267907 12.6179349,0.931423256 12.6179349,1.77346977 L12.6179349,6.24156279 C12.6179349,11.0170047 7.88267907,12.8603535 5.9236093,12.8603535 L1.53067907,12.8603535 C0.688632558,12.8603535 -0.000111627907,13.5490977 -0.000111627907,14.3911442 L-0.000111627907,21.2004465 C-0.000111627907,22.0421209 0.688632558,22.7312372 1.53067907,22.7312372 L8.3399814,22.7312372 C9.18165581,22.7312372 9.87077209,22.0421209 9.87077209,21.2004465 L9.87077209,16.6850977 C9.87077209,11.9092837 14.6056558,10.1131907 16.5647256,10.1131907 L20.9576558,10.1131907 C21.7997023,10.1131907 22.4884465,9.42444651 22.4884465,8.5824 L22.4884465,1.77346977 C22.4884465,0.931423256 21.7997023,0.24267907 20.9576558,0.24267907" id="Fill-1" fill="#FFFFFF" mask="url(#mask-2)"></path>
                    </g>
                    <g id="Group-6" transform="translate(12.279070, 12.780577)">
                        <mask id="mask-4" fill="white">
                            <use xlink:href="#path-3"></use>
                        </mask>
                        <g id="Clip-5"></g>
                        <path d="M21.2963721,0.209302326 L14.4870698,0.209302326 C13.6453953,0.209302326 12.9566512,0.898046512 12.9566512,1.74009302 L12.9566512,6.20818605 C12.9566512,10.9836279 8.22139535,12.8269767 6.26232558,12.8269767 L1.86939535,12.8269767 C1.02734884,12.8269767 0.338604651,13.5157209 0.338604651,14.3577674 L0.338604651,21.1670698 C0.338604651,22.0087442 1.02734884,22.6978605 1.86939535,22.6978605 L8.67869767,22.6978605 C9.52037209,22.6978605 10.2094884,22.0087442 10.2094884,21.1670698 L10.2094884,16.6517209 C10.2094884,11.875907 14.9443721,10.079814 16.9034419,10.079814 L21.2963721,10.079814 C22.1384186,10.079814 22.8271628,9.39106977 22.8271628,8.54902326 L22.8271628,1.74009302 C22.8271628,0.898046512 22.1384186,0.209302326 21.2963721,0.209302326" id="Fill-4" fill="#FFFFFF" mask="url(#mask-4)"></path>
                    </g>
                    <path d="M111.99747,16.9572093 C111.99747,11.1990698 116.363981,7.54213953 121.685284,7.54213953 C125.478772,7.54213953 127.852726,9.45246512 129.217563,11.6083721 L125.99747,13.3549767 C125.178493,12.0723721 123.623144,10.9806512 121.685284,10.9806512 C118.38333,10.9806512 115.98147,13.5186977 115.98147,16.9572093 C115.98147,20.3957209 118.38333,22.9337674 121.685284,22.9337674 C123.29533,22.9337674 124.823888,22.224186 125.560633,21.5417674 L125.560633,19.3586977 L120.757656,19.3586977 L120.757656,15.9748837 L129.435981,15.9748837 L129.435981,22.9609302 C127.579981,25.0353488 124.987237,26.3994419 121.685284,26.3994419 C116.363981,26.3994419 111.99747,22.688186 111.99747,16.9572093" id="Fill-7" fill="#FFFFFF"></path>
                    <path d="M56.1822512,7.54221395 L60.2994605,7.54221395 L60.2994605,25.9913302 L56.1822512,25.9913302 L47.393414,14.4307721 L47.393414,25.9913302 L43.2758326,25.9913302 L43.2758326,7.54221395 L47.1292279,7.54221395 L56.1822512,19.4194233 L56.1822512,7.54221395 Z" id="Fill-9" fill="#FFFFFF"></path>
                    <path d="M70.976707,20.0290605 L70.976707,13.0679442 L74.6016372,13.0679442 L74.6016372,25.9821767 L70.976707,25.9821767 L70.976707,24.2779907 C70.0803349,25.5423628 68.9242419,26.1741767 67.5080558,26.1741767 C66.0918698,26.1741767 64.9037767,25.7302698 63.9434047,24.8420837 C62.9834047,23.9538977 62.5034047,22.6378047 62.5034047,20.8934326 L62.5034047,13.0679442 L66.1279628,13.0679442 L66.1279628,20.1012465 C66.1279628,22.0856186 66.8561488,23.0776186 68.3125209,23.0776186 C69.0325209,23.0776186 69.656893,22.8178977 70.184893,22.2977116 C70.712893,21.7778977 70.976707,21.0214326 70.976707,20.0290605" id="Fill-11" fill="#FFFFFF"></path>
                    <path d="M83.6447256,16.2363907 C82.5723535,16.2363907 81.7723535,16.6166698 81.2439814,17.3764837 C80.7159814,18.1366698 80.4521674,19.1409488 80.4521674,20.3893209 L80.4521674,25.9822512 L76.8514233,25.9822512 L76.8514233,13.0676465 L80.4521674,13.0676465 L80.4521674,14.7722047 C80.9157953,14.2438326 81.4962605,13.7962047 82.1920744,13.4278326 C82.8886326,13.0598326 83.5967256,12.8678326 84.3167256,12.8518326 L84.3409116,16.2363907 L83.6447256,16.2363907 Z" id="Fill-13" fill="#FFFFFF"></path>
                    <path d="M95.8986419,21.9615256 C95.8986419,23.2337116 95.4305488,24.2539907 94.4943628,25.0219907 C93.5581767,25.7903628 92.3700837,26.1743628 90.9297116,26.1743628 C89.9697116,26.1743628 88.9691535,26.0020837 87.9291535,25.6582698 C86.8887814,25.3144558 85.9525953,24.8061767 85.1205953,24.1338047 L86.7049674,21.8774326 C88.0489674,22.9178047 89.4811535,23.4376186 91.0015256,23.4376186 C91.4655256,23.4376186 91.8335256,23.3460837 92.1058977,23.1618977 C92.3778977,22.9780837 92.5140837,22.7336186 92.5140837,22.4296186 C92.5140837,22.1256186 92.3258047,21.8458047 91.9499907,21.5894326 C91.5734326,21.3338047 91.0294326,21.0934326 90.3176186,20.8694326 C89.6054326,20.6454326 89.0610605,20.4534326 88.6852465,20.2930605 C88.3090605,20.1334326 87.8811535,19.9012465 87.4007814,19.5968744 C86.4247814,18.9888744 85.9365953,18.0887814 85.9365953,16.8965953 C85.9365953,15.7044093 86.4169674,14.7325023 87.3769674,13.9801302 C88.3369674,13.2281302 89.5771535,12.8515721 91.0978977,12.8515721 C92.6178977,12.8515721 94.1378977,13.3643163 95.6586419,14.3879442 L94.3146419,16.7883163 C93.1942698,16.0203163 92.0779907,15.6363163 90.9654326,15.6363163 C89.8532465,15.6363163 89.2973395,15.9406884 89.2973395,16.5486884 C89.2973395,16.8846884 89.4733395,17.1485023 89.8253395,17.3405023 C90.1773395,17.5325023 90.7615256,17.7568744 91.5778977,18.0128744 C92.3938977,18.2688744 92.9736186,18.4649674 93.3181767,18.6007814 C93.6619907,18.7369674 94.0742698,18.9490605 94.5542698,19.2370605 C95.4506419,19.7814326 95.8986419,20.6893395 95.8986419,21.9615256" id="Fill-15" fill="#FFFFFF"></path>
                    <path d="M105.62307,16.4525023 C105.12707,16.0365023 104.522419,15.8281302 103.810605,15.8281302 C103.098419,15.8281302 102.44614,16.0443163 101.85414,16.4763163 C101.261767,16.9086884 100.917953,17.4928744 100.821953,18.2288744 L106.48707,18.2288744 C106.40707,17.4605023 106.11907,16.8688744 105.62307,16.4525023 L105.62307,16.4525023 Z M109.079442,24.1098047 C107.62307,25.4865488 105.914791,26.1741767 103.954605,26.1741767 C101.994047,26.1741767 100.373953,25.5702698 99.0939535,24.3620837 C97.8132093,23.1538977 97.1735814,21.5334326 97.1735814,19.5010605 C97.1735814,17.4690605 97.8251163,15.8523163 99.1296744,14.6519442 C100.43386,13.4519442 101.974326,12.8517581 103.750698,12.8517581 C105.52707,12.8517581 107.035163,13.3879442 108.275721,14.4599442 C109.515535,15.5323163 110.135814,17.0046884 110.135814,18.8770605 L110.135814,20.7974326 L100.725953,20.7974326 C100.837953,21.5018047 101.205953,22.0778047 101.830326,22.5258047 C102.454326,22.9738047 103.158326,23.1978047 103.942698,23.1978047 C105.206698,23.1978047 106.24707,22.7739907 107.063442,21.9256186 L109.079442,24.1098047 Z" id="Fill-17" fill="#FFFFFF"></path>
                    <path d="M138.517023,16.2363907 C137.444651,16.2363907 136.644651,16.6166698 136.116279,17.3764837 C135.588279,18.1366698 135.324465,19.1409488 135.324465,20.3893209 L135.324465,25.9822512 L131.723721,25.9822512 L131.723721,13.0676465 L135.324465,13.0676465 L135.324465,14.7722047 C135.788093,14.2438326 136.368558,13.7962047 137.064372,13.4278326 C137.76093,13.0598326 138.469023,12.8678326 139.189023,12.8518326 L139.213209,16.2363907 L138.517023,16.2363907 Z" id="Fill-19" fill="#FFFFFF"></path>
                    <path d="M141.624037,11.2224744 C141.215851,10.8146605 141.012316,10.3145674 141.012316,9.72219535 C141.012316,9.13056744 141.215851,8.63010233 141.624037,8.22191628 C142.032223,7.81373023 142.532316,7.60982326 143.124316,7.60982326 C143.716316,7.60982326 144.216409,7.81373023 144.624595,8.22191628 C145.032781,8.63010233 145.236688,9.13056744 145.236688,9.72219535 C145.236688,10.3145674 145.032781,10.8146605 144.624595,11.2224744 C144.216409,11.6306605 143.716316,11.8345674 143.124316,11.8345674 C142.532316,11.8345674 142.032223,11.6306605 141.624037,11.2224744" id="Fill-21" fill="#FFFFFF"></path>
                    <mask id="mask-6" fill="white">
                        <use xlink:href="#path-5"></use>
                    </mask>
                    <g id="Clip-24"></g>
                    <path d="M141.324279,25.9824372 L144.925023,25.9824372 L144.925023,13.2687628 L141.324279,13.2687628 L141.324279,25.9824372 Z" id="Fill-23" fill="#FFFFFF" mask="url(#mask-6)"></path>
                    <path d="M150.486102,19.6874791 C150.486102,20.7062698 150.791963,21.5405023 151.402567,22.1905488 C152.013916,22.8409674 152.726474,23.1658047 153.54173,23.1658047 C154.356242,23.1658047 155.049451,22.8409674 155.62173,22.1905488 C156.193637,21.5405023 156.479777,20.7021767 156.479777,19.6755721 C156.479777,18.6497116 156.193637,17.795386 155.62173,17.1137116 C155.049451,16.4320372 154.348428,16.0915721 153.518288,16.0915721 C152.687405,16.0915721 151.974847,16.4365023 151.379498,17.1256186 C150.783405,17.815107 150.486102,18.6690605 150.486102,19.6874791 M152.707126,26.1741767 C151.21094,26.1741767 149.875126,25.5397581 148.700056,24.2705488 C147.524986,23.0013395 146.937451,21.4266419 146.937451,19.5464558 C146.937451,17.6662698 147.508986,16.1265488 148.6528,14.9280372 C149.796614,13.7295256 151.136149,13.1300837 152.672149,13.1300837 C154.207405,13.1300837 155.460986,13.6707349 156.432521,14.7516651 L156.432521,7.54236279 L159.958102,7.54236279 L159.958102,25.9862698 L156.432521,25.9862698 L156.432521,24.3174326 C155.445358,25.555386 154.203684,26.1741767 152.707126,26.1741767" id="Fill-25" fill="#FFFFFF" mask="url(#mask-6)"></path>
                    <path d="M22.4642605,17.9251721 C22.4642605,20.6377302 20.2655628,22.8364279 17.5530047,22.8364279 C14.8408186,22.8364279 12.6417488,20.6377302 12.6417488,17.9251721 C12.6417488,15.212614 14.8408186,13.0139163 17.5530047,13.0139163 C20.2655628,13.0139163 22.4642605,15.212614 22.4642605,17.9251721" id="Fill-26" fill="#FFFFFF" mask="url(#mask-6)"></path>
                </g>
            </g>
        </g>
    </g>
</svg>