<?xml version="1.0" encoding="utf-8"?>
<!-- Generator: Adobe Illustrator 19.2.0, SVG Export Plug-In . SVG Version: 6.00 Build 0)  -->
<svg version="1.1" id="Layer_1" xmlns="http://www.w3.org/2000/svg" xmlns:xlink="http://www.w3.org/1999/xlink" x="0px" y="0px"
	 viewBox="0 0 30 30" style="enable-background:new 0 0 30 30;" xml:space="preserve">
<style type="text/css">
	.st0{clip-path:url(#SVGID_2_);}
</style>
<g>
	<defs>
		<rect id="SVGID_1_" width="30" height="30"/>
	</defs>
	<clipPath id="SVGID_2_">
		<use xlink:href="#SVGID_1_"  style="overflow:visible;"/>
	</clipPath>
	<path class="st0" d="M1.6,21.2c0-0.5,0.4-0.9,0.9-0.9h25.3c0.5,0,0.9,0.4,0.9,0.9c0,0.5-0.4,0.9-0.9,0.9H2.5
		C2,22.1,1.6,21.7,1.6,21.2"/>
	<path class="st0" d="M15.2,11.7c-2.7,0-5,2.2-5,4.9h5l5,0C20.1,13.9,17.9,11.7,15.2,11.7"/>
	<path class="st0" d="M15.2,10.1c0.5,0,0.9-0.4,0.9-0.9V5.1c0-0.5-0.4-0.9-0.9-0.9c-0.5,0-0.9,0.4-0.9,0.9v4.1
		C14.3,9.7,14.7,10.1,15.2,10.1"/>
	<path class="st0" d="M6.6,7.9c-0.4-0.4-0.9-0.4-1.3,0c-0.4,0.4-0.4,0.9,0,1.3l3.2,3.2c0.2,0.2,0.4,0.3,0.6,0.3
		c0.2,0,0.5-0.1,0.6-0.3c0.4-0.4,0.4-0.9,0-1.3L6.6,7.9z"/>
	<path class="st0" d="M7.5,15.7c0-0.5-0.4-0.9-0.9-0.9H2.5c-0.5,0-0.9,0.4-0.9,0.9c0,0.5,0.4,0.9,0.9,0.9h4.1
		C7.1,16.6,7.5,16.2,7.5,15.7"/>
	<path class="st0" d="M27.8,14.8h-4.1c-0.5,0-0.9,0.4-0.9,0.9c0,0.5,0.4,0.9,0.9,0.9h4.1c0.5,0,0.9-0.4,0.9-0.9
		C28.7,15.2,28.3,14.8,27.8,14.8"/>
	<path class="st0" d="M21.2,12.6c0.2,0,0.5-0.1,0.6-0.3l3.2-3.2c0.4-0.4,0.4-0.9,0-1.3c-0.4-0.4-0.9-0.4-1.3,0l-3.2,3.2
		c-0.4,0.4-0.4,0.9,0,1.3C20.7,12.6,21,12.6,21.2,12.6"/>
</g>
</svg>
